<?xml version="1.0" encoding="utf-8"?>
<!-- Generator: Adobe Illustrator 23.0.6, SVG Export Plug-In . SVG Version: 6.00 Build 0)  -->
<svg version="1.1" id="Layer_1" xmlns="http://www.w3.org/2000/svg" xmlns:xlink="http://www.w3.org/1999/xlink" x="0px" y="0px"
	 viewBox="0 0 454.5 399.9" style="enable-background:new 0 0 454.5 399.9;" xml:space="preserve">
<style type="text/css">
	.st0{fill:#FFFFFF;}
</style>
<path class="st0" d="M346.4,33.9H140.6C105.5,33.9,77,62.4,77,97.6v205.7c0,35.2,28.5,63.6,63.6,63.6h205.7
	c35.2,0,63.6-28.5,63.6-63.6V97.6C410,62.4,381.5,33.9,346.4,33.9z M228.9,166.8c0,8.3-6.7,15-15,15s-15-6.7-15-15s6.7-15,15-15
	S228.9,158.5,228.9,166.8z M171.3,91.2c20.1,0,36.4,16.3,36.4,36.4s-16.3,36.4-36.4,36.4s-36.4-16.3-36.4-36.4
	S151.2,91.2,171.3,91.2z M316.6,236.5c20.1,0,36.4,16.3,36.4,36.4s-16.3,36.4-36.4,36.4s-36.4-16.3-36.4-36.4
	c0-26.8-9.6-48.4-36.3-48.4s-36.3,21.7-36.3,48.4c0,20.1-16.3,36.4-36.4,36.4s-36.4-16.3-36.4-36.4s16.3-36.4,36.4-36.4
	c26.8,0,48.4-9.5,48.4-36.3h0c0-13.4,10.8-24.2,24.2-24.2v0c26.8,0,36.3-21.7,36.3-48.4c0-20.1,16.3-36.4,36.4-36.4
	s36.4,16.3,36.4,36.4s-16.3,36.4-36.4,36.4c-26.8,0-48.5,9.5-48.5,36.3S289.9,236.5,316.6,236.5z"/>
</svg>
